<?xml version="1.0" encoding="UTF-8" standalone="no"?>
<svg
   xmlns:dc="http://purl.org/dc/elements/1.1/"
   xmlns:cc="http://creativecommons.org/ns#"
   xmlns:rdf="http://www.w3.org/1999/02/22-rdf-syntax-ns#"
   xmlns:svg="http://www.w3.org/2000/svg"
   xmlns="http://www.w3.org/2000/svg"
   xmlns:sodipodi="http://sodipodi.sourceforge.net/DTD/sodipodi-0.dtd"
   xmlns:inkscape="http://www.inkscape.org/namespaces/inkscape"
   inkscape:version="1.0 (4035a4fb49, 2020-05-01)"
   sodipodi:docname="Kofi_logo_RGB_Outline copy.svg"
   version="1.1"
   viewBox="0 0 20 13.12"
   data-name="Layer 1"
   id="Layer_1">
  <metadata
     id="metadata16">
    <rdf:RDF>
      <cc:Work
         rdf:about="">
        <dc:format>image/svg+xml</dc:format>
        <dc:type
           rdf:resource="http://purl.org/dc/dcmitype/StillImage" />
      </cc:Work>
    </rdf:RDF>
  </metadata>
  <sodipodi:namedview
     inkscape:current-layer="g4184"
     inkscape:window-maximized="1"
     inkscape:window-y="1432"
     inkscape:window-x="2212"
     inkscape:cy="6.5599999"
     inkscape:cx="10"
     inkscape:zoom="52.45"
     showgrid="false"
     id="namedview14"
     inkscape:window-height="1009"
     inkscape:window-width="1920"
     inkscape:pageshadow="2"
     inkscape:pageopacity="0"
     guidetolerance="10"
     gridtolerance="10"
     objecttolerance="10"
     borderopacity="1"
     bordercolor="#666666"
     pagecolor="#ffffff" />
  <defs
     id="defs4">
    <style
       id="style2">.cls-1{fill:#fff;stroke:#323a47;stroke-linecap:round;stroke-linejoin:round;}.cls-2{fill:#ff5e5b;}</style>
  </defs>
  <title
     id="title6">Kofi_logo_RGB_Outline copy</title>
  <g
     id="layer1">
    <g
       id="g40">
      <g
         id="g4184">
        <path
           style="fill:#ffffff"
           d="m 15.54,7.29 a 5.87,5.87 0 0 1 -1.33,0 V 2.82 h 0.9 a 2,2 0 0 1 2.06,2.09 2.21,2.21 0 0 1 -1.63,2.38 M 19.41,4.14 A 4.34,4.34 0 0 0 17.63,1.34 4.8,4.8 0 0 0 14.91,0.5 H 1.17 A 0.72,0.72 0 0 0 0.5,1.21 c 0,0 0,0.15 0,0.15 0,0 0,6.08 0,9.33 a 2,2 0 0 0 2.08,1.91 h 9.28 a 3,3 0 0 0 0.42,-0.05 2.65,2.65 0 0 0 1.87,-2.91 c 3.44,0.19 5.87,-2.24 5.26,-5.47"
           class="cls-1"
           id="path38" />
        <path
           d="m 7.24,10.08 a 0.19,0.19 0 0 0 0.24,0 c 0,0 2.19,-2 3.17,-3.14 A 2.1,2.1 0 0 0 10.08,3.53 2.57,2.57 0 0 0 7.34,4.29 2.41,2.41 0 0 0 3.89,4 2.43,2.43 0 0 0 4,6.88 C 4.49,7.6 6.8,9.66 7.15,10 l 0.09,0.07"
           class="cls-2"
           id="path42" />
      </g>
    </g>
  </g>
</svg>
